# 3ds Max Wavefront OBJ Exporter v0.97b - (c)2007 guruware
# File Created: 25.09.2015 08:54:26

mtllib 3d-model.mtl

#
# object Layer0_001
#

v  -23.0000 0.0000 5.6875
v  -23.0000 0.0000 4.6875
v  -21.0000 0.0000 4.6875
v  -21.0000 0.0000 5.6875
v  21.0000 0.0000 5.6875
v  23.0000 0.0000 5.6875
v  23.0000 89.7500 5.6875
v  21.0000 84.0000 5.6875
v  0.6309 84.5206 5.6875
v  1.2188 84.7641 5.6875
v  1.7236 85.1514 5.6875
v  2.1109 85.6563 5.6875
v  2.3544 86.2441 5.6875
v  2.4375 86.8750 5.6875
v  2.3544 87.5059 5.6875
v  2.1109 88.0938 5.6875
v  1.7236 88.5986 5.6875
v  1.2188 88.9859 5.6875
v  0.6309 89.2294 5.6875
v  0.0000 89.3125 5.6875
v  -23.0000 89.7500 5.6875
v  -0.6309 89.2294 5.6875
v  -1.2188 88.9859 5.6875
v  -1.7236 88.5986 5.6875
v  -2.1109 88.0938 5.6875
v  -2.3544 87.5059 5.6875
v  -2.3862 87.2647 5.6875
v  -2.4375 86.8750 5.6875
v  -2.3544 86.2441 5.6875
v  -2.1109 85.6563 5.6875
v  -1.7236 85.1514 5.6875
v  -1.2188 84.7641 5.6875
v  -0.6309 84.5206 5.6875
v  -21.0000 84.0000 5.6875
v  0.0000 84.4375 5.6875
v  -23.0000 89.7500 4.6875
v  23.0000 89.7500 4.6875
v  -21.0000 84.0000 -4.8125
v  -21.0000 0.0000 -4.8125
v  21.0000 0.0000 4.6875
v  23.0000 0.0000 4.6875
v  10.8750 0.0000 -5.1250
v  10.8750 0.0000 -5.6875
v  21.7500 0.0000 -5.6875
v  21.0000 0.0000 -4.8125
v  21.7500 0.0000 -4.8125
v  10.5000 0.0000 -4.8125
v  0.0000 0.0000 -4.8125
v  0.0000 0.0000 -5.1250
v  10.5000 84.0000 -4.8125
v  0.0000 84.0000 -4.8125
v  -21.7500 0.0000 -4.8125
v  -21.7500 0.0000 -5.6875
v  -10.8750 0.0000 -5.6875
v  -10.8750 0.0000 -5.1250
v  -10.5000 0.0000 -4.8125
v  0.0000 84.0000 -5.1250
v  10.8750 84.0000 -5.1250
v  21.0000 84.0000 -4.8125
v  10.8750 84.0000 -5.6875
v  21.7500 84.0000 -5.6875
v  21.7500 84.0000 -4.8125
v  -10.5000 84.0000 -4.8125
v  -10.8750 84.0000 -5.1250
v  -10.8750 84.0000 -5.6875
v  -21.7500 84.0000 -5.6875
v  -21.7500 84.0000 -4.8125
v  -0.3973 87.1888 6.0625
v  0.0000 87.1797 6.0625
v  0.3973 87.1888 6.0625
v  0.4610 87.1932 6.0625
v  -0.7937 87.2161 6.0625
v  0.6998 87.2097 6.0625
v  0.7937 87.2161 6.0625
v  1.1885 87.2616 6.0625
v  -1.1885 87.2616 6.0625
v  1.5807 87.3252 6.0625
v  -1.5807 87.3252 6.0625
v  1.9697 87.4066 6.0625
v  -1.9697 87.4066 6.0625
v  2.3544 87.5059 6.0625
v  -2.3544 87.5059 6.0625
v  2.1109 88.0938 6.0625
v  -2.1109 88.0938 6.0625
v  1.7236 88.5986 6.0625
v  -1.7236 88.5986 6.0625
v  1.2188 88.9859 6.0625
v  -1.2188 88.9859 6.0625
v  0.6309 89.2294 6.0625
v  -0.6309 89.2294 6.0625
v  0.0000 89.3125 6.0625
v  -0.6309 84.5206 6.0625
v  0.0000 84.4375 6.0625
v  0.6309 84.5206 6.0625
v  1.2188 84.7641 6.0625
v  -1.2188 84.7641 6.0625
v  1.7236 85.1514 6.0625
v  -1.7236 85.1514 6.0625
v  2.1109 85.6563 6.0625
v  -2.1109 85.6563 6.0625
v  2.3544 86.2441 6.0625
v  -2.3544 86.2441 6.0625
v  1.9697 86.3434 6.0625
v  -1.9697 86.3434 6.0625
v  -1.5807 86.4248 6.0625
v  1.5807 86.4248 6.0625
v  1.1885 86.4884 6.0625
v  -1.1885 86.4884 6.0625
v  0.7937 86.5339 6.0625
v  -0.7937 86.5339 6.0625
v  0.6998 86.5403 6.0625
v  -0.3973 86.5612 6.0625
v  0.4610 86.5568 6.0625
v  0.3973 86.5612 6.0625
v  0.0000 86.5703 6.0625
v  2.4375 86.8750 6.0625
v  -2.4375 86.8750 6.0625
v  0.0000 84.0000 -6.0625
v  10.8750 84.0000 -6.0625
v  -10.8750 84.0000 -6.0625
v  -21.7500 84.0000 -6.0625
v  -21.7500 0.0000 -6.0625
v  21.7500 84.0000 -6.0625
v  21.7500 0.0000 -6.0625
v  1.0662 87.7831 -6.0625
v  1.5993 87.7831 -6.0625
v  1.5993 88.2372 -6.0625
v  1.0662 88.2372 -6.0625
v  0.0000 87.7831 -6.0625
v  0.5331 87.7831 -6.0625
v  0.5331 88.2372 -6.0625
v  0.0000 88.2372 -6.0625
v  0.0000 85.0587 -6.0625
v  0.5331 85.0587 -6.0625
v  0.5331 85.5128 -6.0625
v  0.0000 85.5128 -6.0625
v  -1.0662 85.9669 -6.0625
v  -0.5331 85.9669 -6.0625
v  -0.5331 86.4209 -6.0625
v  -1.0662 86.4209 -6.0625
v  -1.0662 85.5128 -6.0625
v  -0.5331 85.5128 -6.0625
v  -4.2647 88.2372 -6.0625
v  -3.7316 88.2372 -6.0625
v  -3.7316 88.6913 -6.0625
v  -4.2647 88.6913 -6.0625
v  3.7316 88.2372 -6.0625
v  4.2647 88.2372 -6.0625
v  4.2647 88.6913 -6.0625
v  3.7316 88.6913 -6.0625
v  2.1323 88.2372 -6.0625
v  2.6654 88.2372 -6.0625
v  2.6654 88.6913 -6.0625
v  2.1323 88.6913 -6.0625
v  3.7316 85.5128 -6.0625
v  4.2647 85.5128 -6.0625
v  4.2647 85.9669 -6.0625
v  3.7316 85.9669 -6.0625
v  -4.2647 87.7831 -6.0625
v  -3.7316 87.7831 -6.0625
v  -4.2647 85.0587 -6.0625
v  -3.7316 85.0587 -6.0625
v  -3.7316 85.5128 -6.0625
v  -4.2647 85.5128 -6.0625
v  3.1985 88.2372 -6.0625
v  3.1985 88.6913 -6.0625
v  -3.1985 87.7831 -6.0625
v  -2.6654 87.7831 -6.0625
v  -2.6654 88.2372 -6.0625
v  -3.1985 88.2372 -6.0625
v  1.0662 85.9669 -6.0625
v  1.5993 85.9669 -6.0625
v  1.5993 86.4209 -6.0625
v  1.0662 86.4209 -6.0625
v  3.1985 86.4209 -6.0625
v  3.7316 86.4209 -6.0625
v  3.7316 86.8750 -6.0625
v  3.1985 86.8750 -6.0625
v  4.2647 86.8750 -6.0625
v  4.2647 87.3291 -6.0625
v  3.7316 87.3291 -6.0625
v  -3.1985 85.5128 -6.0625
v  -2.6654 85.5128 -6.0625
v  -2.6654 85.9669 -6.0625
v  -3.1985 85.9669 -6.0625
v  -4.2647 86.8750 -6.0625
v  -3.7316 86.8750 -6.0625
v  -3.7316 87.3291 -6.0625
v  -4.2647 87.3291 -6.0625
v  4.2647 86.4209 -6.0625
v  0.5331 85.9669 -6.0625
v  0.0000 85.9669 -6.0625
v  0.0000 86.4209 -6.0625
v  0.5331 86.4209 -6.0625
v  0.5331 86.8750 -6.0625
v  0.0000 86.8750 -6.0625
v  -2.1323 85.5128 -6.0625
v  -1.5993 85.5128 -6.0625
v  -1.5993 85.9669 -6.0625
v  -2.1323 85.9669 -6.0625
v  0.5331 88.6913 -6.0625
v  0.0000 88.6913 -6.0625
v  -4.2647 85.9669 -6.0625
v  -3.7316 85.9669 -6.0625
v  -3.7316 86.4209 -6.0625
v  -4.2647 86.4209 -6.0625
v  0.5331 87.3291 -6.0625
v  0.0000 87.3291 -6.0625
v  2.1323 87.3291 -6.0625
v  2.6654 87.3291 -6.0625
v  2.6654 87.7831 -6.0625
v  2.1323 87.7831 -6.0625
v  -3.1985 87.3291 -6.0625
v  -2.6654 87.3291 -6.0625
v  -1.0662 87.3291 -6.0625
v  -0.5331 87.3291 -6.0625
v  -0.5331 87.7831 -6.0625
v  -1.0662 87.7831 -6.0625
v  2.1323 86.4209 -6.0625
v  2.6654 86.4209 -6.0625
v  2.6654 86.8750 -6.0625
v  2.1323 86.8750 -6.0625
v  3.1985 87.3291 -6.0625
v  3.7316 87.7831 -6.0625
v  3.1985 87.7831 -6.0625
v  -2.6654 86.4209 -6.0625
v  -3.1985 86.4209 -6.0625
v  1.5993 86.8750 -6.0625
v  -1.5993 86.4209 -6.0625
v  -2.1323 86.4209 -6.0625
v  1.0662 86.8750 -6.0625
v  1.5993 87.3291 -6.0625
v  1.0662 87.3291 -6.0625
v  -1.5993 86.8750 -6.0625
v  -2.1323 86.8750 -6.0625
v  -2.1323 87.7831 -6.0625
v  -1.5993 87.7831 -6.0625
v  -1.5993 88.2372 -6.0625
v  -2.1323 88.2372 -6.0625
v  -1.5993 87.3291 -6.0625
v  -2.1323 87.3291 -6.0625
v  1.0662 85.5128 -6.0625
v  1.5993 85.5128 -6.0625
v  2.1323 85.9669 -6.0625
v  2.6654 85.9669 -6.0625
v  3.1985 85.9669 -6.0625
v  4.2647 87.7831 -6.0625
v  2.1323 85.5128 -6.0625
v  -1.5993 88.6913 -6.0625
v  -2.1323 88.6913 -6.0625
v  1.5993 88.6913 -6.0625
v  -0.5331 88.2372 -6.0625
v  -1.0662 88.2372 -6.0625
v  1.0662 88.6913 -6.0625
v  3.1985 85.0587 -6.0625
v  3.7316 85.0587 -6.0625
v  3.1985 85.5128 -6.0625
v  2.1323 85.0587 -6.0625
v  2.6654 85.0587 -6.0625
v  2.6654 85.5128 -6.0625
v  -2.1323 85.0587 -6.0625
v  -1.5993 85.0587 -6.0625
v  1.0662 85.0587 -6.0625
v  1.5993 85.0587 -6.0625
v  4.2647 85.0587 -6.0625
v  -1.0662 85.0587 -6.0625
v  -0.5331 85.0587 -6.0625
v  -0.5331 88.6913 -6.0625
v  -1.0662 88.6913 -6.0625
v  -3.1985 85.0587 -6.0625
v  -1.0662 86.8750 -6.0625
v  -0.5331 86.8750 -6.0625
v  -3.1985 86.8750 -6.0625
v  -3.1985 88.6913 -6.0625
v  -2.6654 85.0587 -6.0625
v  -2.6654 88.6913 -6.0625
v  -2.6654 86.8750 -6.0625
# 277 vertices

vn 0.0000 -1.0000 -0.0000
vn -0.0000 -0.0000 1.0000
vn -1.0000 -0.0000 0.0000
vn 0.0000 1.0000 0.0000
vn 1.0000 0.0000 -0.0000
vn 0.2588 0.9659 0.0000
vn -0.2588 0.9659 0.0000
vn -0.5000 0.8660 0.0000
vn -0.7071 0.7071 0.0000
vn -0.8660 0.5000 0.0000
vn -0.9239 0.3827 0.0000
vn 0.8660 0.5000 0.0000
vn 0.9239 0.3827 0.0000
vn 0.7071 0.7071 0.0000
vn 0.5000 0.8660 0.0000
vn -0.8660 -0.5000 -0.0000
vn -0.9239 -0.3827 -0.0000
vn -0.7071 -0.7071 -0.0000
vn -0.5000 -0.8660 -0.0000
vn -0.2588 -0.9659 -0.0000
vn -0.0000 -1.0000 -0.0000
vn 0.2588 -0.9659 -0.0000
vn 0.5000 -0.8660 -0.0000
vn 0.7071 -0.7071 -0.0000
vn 0.8660 -0.5000 -0.0000
vn 0.9239 -0.3827 -0.0000
vn -1.0000 -0.0000 -0.0000
vn -0.9914 0.1305 0.0000
vn -0.9914 -0.1305 -0.0000
vn 0.9914 -0.1305 -0.0000
vn 0.9914 0.1305 0.0000
vn 0.0000 1.0000 -0.0000
vn -1.0000 0.0000 -0.0000
vn 0.0000 0.0000 1.0000
# 34 vertex normals

vt 0.0000 0.0000 0.0000
vt 0.0505 0.0948 0.0000
vt 0.0505 0.0901 0.0000
vt 0.0958 0.0901 0.0000
vt 0.1411 0.0948 0.0000
vt 0.1865 0.0979 0.0000
vt 0.0052 0.0979 0.0000
vt 0.0052 0.0948 0.0000
vt 0.1865 0.0948 0.0000
vt 0.1411 0.0901 0.0000
# 10 texture coords

g Layer0_001
usemtl wire_087224198
s off
f 1/1/1 2/1/1 3/1/1 4/1/1 
f 5/1/2 6/1/2 7/1/2 8/1/2 
f 9/1/2 8/1/2 7/1/2 10/1/2 
f 11/1/2 10/1/2 7/1/2 12/1/2 
f 13/1/2 12/1/2 7/1/2 14/1/2 
f 15/1/2 14/1/2 7/1/2 16/1/2 
f 17/1/2 16/1/2 7/1/2 18/1/2 
f 19/1/2 18/1/2 7/1/2 20/1/2 
f 20/1/2 7/1/2 21/1/2 22/1/2 
f 23/1/2 22/1/2 21/1/2 24/1/2 
f 25/1/2 24/1/2 21/1/2 26/1/2 
f 27/1/2 26/1/2 21/1/2 28/1/2 
f 29/1/2 28/1/2 21/1/2 30/1/2 
f 31/1/2 30/1/2 21/1/2 32/1/2 
f 33/1/2 32/1/2 21/1/2 34/1/2 
f 34/1/2 21/1/2 1/1/2 4/1/2 
f 35/1/2 33/1/2 34/1/2 8/1/2 
f 8/1/2 9/1/2 35/1/2 
f 1/1/3 21/1/3 36/1/3 2/1/3 
f 36/1/4 21/1/4 7/1/4 37/1/4 
f 38/1/5 34/1/5 4/1/5 3/1/5 
f 38/1/5 3/1/5 39/1/5 
f 5/1/1 40/1/1 41/1/1 6/1/1 
f 42/1/1 43/1/1 44/1/1 45/1/1 
f 45/1/1 44/1/1 46/1/1 
f 42/1/1 45/1/1 47/1/1 48/1/1 
f 42/1/1 48/1/1 49/1/1 
f 48/1/2 47/1/2 50/1/2 51/1/2 
f 37/1/5 7/1/5 6/1/5 41/1/5 
f 52/1/1 53/1/1 54/1/1 39/1/1 
f 39/1/1 54/1/1 55/1/1 56/1/1 
f 56/1/1 55/1/1 49/1/1 48/1/1 
f 57/1/4 51/1/4 50/1/4 58/1/4 
f 58/1/4 50/1/4 59/1/4 60/1/4 
f 61/1/4 60/1/4 59/1/4 62/1/4 
f 59/1/2 45/1/2 46/1/2 62/1/2 
f 34/1/1 38/1/1 63/1/1 8/1/1 
f 8/1/1 63/1/1 51/1/1 50/1/1 
f 8/1/1 50/1/1 59/1/1 
f 64/1/4 38/1/4 63/1/4 57/1/4 
f 57/1/4 63/1/4 51/1/4 
f 38/1/4 64/1/4 65/1/4 66/1/4 
f 38/1/4 66/1/4 67/1/4 
f 5/1/3 8/1/3 59/1/3 40/1/3 
f 40/1/3 59/1/3 45/1/3 
f 63/1/2 56/1/2 48/1/2 51/1/2 
f 62/1/5 46/1/5 44/1/5 61/1/5 
f 52/1/3 67/1/3 66/1/3 53/1/3 
f 52/1/2 39/1/2 38/1/2 67/1/2 
f 38/1/2 39/1/2 56/1/2 63/1/2 
f 47/1/2 45/1/2 59/1/2 50/1/2 
f 68/1/2 69/1/2 70/1/2 71/1/2 
f 72/1/2 68/1/2 71/1/2 73/1/2 
f 72/1/2 73/1/2 74/1/2 75/1/2 
f 76/1/2 72/1/2 75/1/2 77/1/2 
f 78/1/2 76/1/2 77/1/2 79/1/2 
f 80/1/2 78/1/2 79/1/2 81/1/2 
f 82/1/2 80/1/2 81/1/2 83/1/2 
f 84/1/2 82/1/2 83/1/2 85/1/2 
f 86/1/2 84/1/2 85/1/2 87/1/2 
f 88/1/2 86/1/2 87/1/2 89/1/2 
f 90/1/2 88/1/2 89/1/2 91/1/2 
f 20/1/4 91/1/4 89/1/6 19/1/6 
f 22/1/7 90/1/7 91/1/4 20/1/4 
f 23/1/8 88/1/8 90/1/7 22/1/7 
f 24/1/9 86/1/9 88/1/8 23/1/8 
f 84/1/10 86/1/9 24/1/9 25/1/10 
f 82/1/11 84/1/10 25/1/10 26/1/11 
f 16/1/12 83/1/12 81/1/13 15/1/13 
f 17/1/14 85/1/14 83/1/12 16/1/12 
f 18/1/15 87/1/15 85/1/14 17/1/14 
f 19/1/6 89/1/6 87/1/15 18/1/15 
f 92/1/2 93/1/2 94/1/2 95/1/2 
f 96/1/2 92/1/2 95/1/2 97/1/2 
f 98/1/2 96/1/2 97/1/2 99/1/2 
f 100/1/2 98/1/2 99/1/2 101/1/2 
f 102/1/2 100/1/2 101/1/2 103/1/2 
f 104/1/2 102/1/2 103/1/2 105/1/2 
f 105/1/2 103/1/2 106/1/2 107/1/2 
f 108/1/2 105/1/2 107/1/2 109/1/2 
f 110/1/2 108/1/2 109/1/2 111/1/2 
f 112/1/2 110/1/2 111/1/2 113/1/2 
f 112/1/2 113/1/2 114/1/2 115/1/2 
f 100/1/16 102/1/17 29/1/17 30/1/16 
f 98/1/18 100/1/16 30/1/16 31/1/18 
f 96/1/19 98/1/18 31/1/18 32/1/19 
f 92/1/20 96/1/19 32/1/19 33/1/20 
f 93/1/21 92/1/20 33/1/20 35/1/21 
f 94/1/22 93/1/21 35/1/21 9/1/22 
f 95/1/23 94/1/22 9/1/22 10/1/23 
f 97/1/24 95/1/23 10/1/23 11/1/24 
f 12/1/25 99/1/25 97/1/24 11/1/24 
f 13/1/26 101/1/26 99/1/25 12/1/25 
f 33/1/2 35/1/2 9/1/2 10/1/2 
f 32/1/2 33/1/2 10/1/2 11/1/2 
f 31/1/2 32/1/2 11/1/2 12/1/2 
f 30/1/2 31/1/2 12/1/2 13/1/2 
f 29/1/2 30/1/2 13/1/2 14/1/2 
f 28/1/2 29/1/2 14/1/2 15/1/2 
f 27/1/2 28/1/2 15/1/2 26/1/2 
f 26/1/2 15/1/2 16/1/2 25/1/2 
f 25/1/2 16/1/2 17/1/2 24/1/2 
f 24/1/2 17/1/2 18/1/2 23/1/2 
f 23/1/2 18/1/2 19/1/2 22/1/2 
f 22/1/2 19/1/2 20/1/2 
f 103/1/2 101/1/2 116/1/2 106/1/2 
f 107/1/2 106/1/2 116/1/2 109/1/2 
f 111/1/2 109/1/2 116/1/2 113/1/2 
f 114/1/2 113/1/2 116/1/2 115/1/2 
f 115/1/2 116/1/2 117/1/2 112/1/2 
f 110/1/2 112/1/2 117/1/2 108/1/2 
f 105/1/2 108/1/2 117/1/2 104/1/2 
f 104/1/2 117/1/2 102/1/2 
f 74/1/2 117/1/2 116/1/2 75/1/2 
f 77/1/2 75/1/2 116/1/2 79/1/2 
f 79/1/2 116/1/2 81/1/2 
f 71/1/2 117/1/2 74/1/2 73/1/2 
f 117/1/2 71/1/2 70/1/2 69/1/2 
f 117/1/2 69/1/2 68/1/2 72/1/2 
f 117/1/2 72/1/2 76/1/2 78/1/2 
f 117/1/2 78/1/2 80/1/2 82/1/2 
f 117/1/27 82/1/28 26/1/28 28/1/27 
f 28/1/27 26/1/28 27/1/28 
f 102/1/29 117/1/27 28/1/27 29/1/29 
f 14/1/5 116/1/5 101/1/30 13/1/30 
f 15/1/31 81/1/31 116/1/5 14/1/5 
f 118/1/32 57/1/32 58/1/32 119/1/32 
f 119/1/32 58/1/32 60/1/32 
f 55/1/33 64/1/33 65/1/33 54/1/33 
f 55/1/34 49/1/34 57/1/34 64/1/34 
f 65/1/32 64/1/32 57/1/32 120/1/32 
f 120/1/32 57/1/32 118/1/32 
f 53/1/33 66/1/33 121/1/33 122/1/33 
f 121/1/32 66/1/32 65/1/32 120/1/32 
f 53/1/34 54/1/34 65/1/34 66/1/34 
f 49/1/34 42/1/34 58/1/34 57/1/34 
f 119/1/32 60/1/32 61/1/32 123/1/32 
f 43/1/34 44/1/34 61/1/34 60/1/34 
f 58/1/5 42/1/5 43/1/5 60/1/5 
f 61/1/5 44/1/5 124/1/5 123/1/5 
f 125/1/34 126/1/34 127/1/34 128/1/34 
f 129/1/34 130/1/34 131/1/34 132/1/34 
f 133/1/34 134/1/34 135/1/34 136/1/34 
f 137/1/34 138/1/34 139/1/34 140/1/34 
f 141/1/34 142/1/34 138/1/34 137/1/34 
f 143/1/34 144/1/34 145/1/34 146/1/34 
f 147/1/34 148/1/34 149/1/34 150/1/34 
f 151/1/34 152/1/34 153/1/34 154/1/34 
f 155/1/34 156/1/34 157/1/34 158/1/34 
f 159/1/34 160/1/34 144/1/34 143/1/34 
f 161/1/34 162/1/34 163/1/34 164/1/34 
f 165/1/34 147/1/34 150/1/34 166/1/34 
f 167/1/34 168/1/34 169/1/34 170/1/34 
f 171/1/34 172/1/34 173/1/34 174/1/34 
f 175/1/34 176/1/34 177/1/34 178/1/34 
f 177/1/34 179/1/34 180/1/34 181/1/34 
f 182/1/34 183/1/34 184/1/34 185/1/34 
f 186/1/34 187/1/34 188/1/34 189/1/34 
f 176/1/34 190/1/34 179/1/34 177/1/34 
f 136/1/34 135/1/34 191/1/34 192/1/34 
f 193/1/34 194/1/34 195/1/34 196/1/34 
f 197/1/34 198/1/34 199/1/34 200/1/34 
f 132/1/34 131/1/34 201/1/34 202/1/34 
f 203/1/34 204/1/34 205/1/34 206/1/34 
f 196/1/34 195/1/34 207/1/34 208/1/34 
f 209/1/34 210/1/34 211/1/34 212/1/34 
f 213/1/34 214/1/34 168/1/34 167/1/34 
f 215/1/34 216/1/34 217/1/34 218/1/34 
f 219/1/34 220/1/34 221/1/34 222/1/34 
f 222/1/34 221/1/34 210/1/34 209/1/34 
f 178/1/34 177/1/34 181/1/34 223/1/34 
f 206/1/34 205/1/34 187/1/34 186/1/34 
f 223/1/34 181/1/34 224/1/34 225/1/34 
f 185/1/34 184/1/34 226/1/34 227/1/34 
f 173/1/34 219/1/34 222/1/34 228/1/34 
f 200/1/34 199/1/34 229/1/34 230/1/34 
f 192/1/34 191/1/34 194/1/34 193/1/34 
f 231/1/34 228/1/34 232/1/34 233/1/34 
f 230/1/34 229/1/34 234/1/34 235/1/34 
f 236/1/34 237/1/34 238/1/34 239/1/34 
f 189/1/34 188/1/34 160/1/34 159/1/34 
f 235/1/34 234/1/34 240/1/34 241/1/34 
f 241/1/34 240/1/34 237/1/34 236/1/34 
f 208/1/34 207/1/34 130/1/34 129/1/34 
f 233/1/34 232/1/34 126/1/34 125/1/34 
f 228/1/34 222/1/34 209/1/34 232/1/34 
f 242/1/34 243/1/34 172/1/34 171/1/34 
f 174/1/34 173/1/34 228/1/34 231/1/34 
f 244/1/34 245/1/34 220/1/34 219/1/34 
f 246/1/34 158/1/34 176/1/34 175/1/34 
f 224/1/34 247/1/34 148/1/34 147/1/34 
f 243/1/34 248/1/34 244/1/34 172/1/34 
f 239/1/34 238/1/34 249/1/34 250/1/34 
f 126/1/34 212/1/34 151/1/34 127/1/34 
f 127/1/34 151/1/34 154/1/34 251/1/34 
f 218/1/34 217/1/34 252/1/34 253/1/34 
f 164/1/34 163/1/34 204/1/34 203/1/34 
f 128/1/34 127/1/34 251/1/34 254/1/34 
f 255/1/34 256/1/34 155/1/34 257/1/34 
f 258/1/34 259/1/34 260/1/34 248/1/34 
f 261/1/34 262/1/34 198/1/34 197/1/34 
f 263/1/34 264/1/34 243/1/34 242/1/34 
f 256/1/34 265/1/34 156/1/34 155/1/34 
f 264/1/34 258/1/34 248/1/34 243/1/34 
f 198/1/34 141/1/34 137/1/34 199/1/34 
f 152/1/34 165/1/34 166/1/34 153/1/34 
f 266/1/34 267/1/34 142/1/34 141/1/34 
f 267/1/34 133/1/34 136/1/34 142/1/34 
f 259/1/34 255/1/34 257/1/34 260/1/34 
f 253/1/34 252/1/34 268/1/34 269/1/34 
f 260/1/34 257/1/34 246/1/34 245/1/34 
f 162/1/34 270/1/34 182/1/34 163/1/34 
f 160/1/34 167/1/34 170/1/34 144/1/34 
f 142/1/34 136/1/34 192/1/34 138/1/34 
f 221/1/34 178/1/34 223/1/34 210/1/34 
f 238/1/34 253/1/34 269/1/34 249/1/34 
f 240/1/34 215/1/34 218/1/34 237/1/34 
f 225/1/34 224/1/34 147/1/34 165/1/34 
f 199/1/34 137/1/34 140/1/34 229/1/34 
f 234/1/34 271/1/34 215/1/34 240/1/34 
f 252/1/34 132/1/34 202/1/34 268/1/34 
f 237/1/34 218/1/34 253/1/34 238/1/34 
f 181/1/34 180/1/34 247/1/34 224/1/34 
f 138/1/34 192/1/34 193/1/34 139/1/34 
f 245/1/34 246/1/34 175/1/34 220/1/34 
f 272/1/34 196/1/34 208/1/34 216/1/34 
f 187/1/34 273/1/34 213/1/34 188/1/34 
f 220/1/34 175/1/34 178/1/34 221/1/34 
f 210/1/34 223/1/34 225/1/34 211/1/34 
f 229/1/34 140/1/34 271/1/34 234/1/34 
f 232/1/34 209/1/34 212/1/34 126/1/34 
f 204/1/34 185/1/34 227/1/34 205/1/34 
f 205/1/34 227/1/34 273/1/34 187/1/34 
f 188/1/34 213/1/34 167/1/34 160/1/34 
f 216/1/34 208/1/34 129/1/34 217/1/34 
f 139/1/34 193/1/34 196/1/34 272/1/34 
f 262/1/34 266/1/34 141/1/34 198/1/34 
f 144/1/34 170/1/34 274/1/34 145/1/34 
f 163/1/34 182/1/34 185/1/34 204/1/34 
f 211/1/34 225/1/34 165/1/34 152/1/34 
f 217/1/34 129/1/34 132/1/34 252/1/34 
f 212/1/34 211/1/34 152/1/34 151/1/34 
f 214/1/34 241/1/34 236/1/34 168/1/34 
f 275/1/34 261/1/34 197/1/34 183/1/34 
f 170/1/34 169/1/34 276/1/34 274/1/34 
f 134/1/34 263/1/34 242/1/34 135/1/34 
f 270/1/34 275/1/34 183/1/34 182/1/34 
f 140/1/34 139/1/34 272/1/34 271/1/34 
f 169/1/34 239/1/34 250/1/34 276/1/34 
f 184/1/34 200/1/34 230/1/34 226/1/34 
f 191/1/34 171/1/34 174/1/34 194/1/34 
f 277/1/34 235/1/34 241/1/34 214/1/34 
f 227/1/34 226/1/34 277/1/34 273/1/34 
f 195/1/34 231/1/34 233/1/34 207/1/34 
f 271/1/34 272/1/34 216/1/34 215/1/34 
f 273/1/34 277/1/34 214/1/34 213/1/34 
f 168/1/34 236/1/34 239/1/34 169/1/34 
f 207/1/34 233/1/34 125/1/34 130/1/34 
f 226/1/34 230/1/34 235/1/34 277/1/34 
f 194/1/34 174/1/34 231/1/34 195/1/34 
f 172/1/34 244/1/34 219/1/34 173/1/34 
f 158/1/34 157/1/34 190/1/34 176/1/34 
f 248/1/34 260/1/34 245/1/34 244/1/34 
f 131/1/34 128/1/34 254/1/34 201/1/34 
f 130/1/34 125/1/34 128/1/34 131/1/34 
f 135/1/34 242/1/34 171/1/34 191/1/34 
f 183/1/34 197/1/34 200/1/34 184/1/34 
f 257/1/34 155/1/34 158/1/34 246/1/34 
f 54/2/4 55/3/4 49/4/4 43/5/4 
f 54/2/4 43/5/4 124/6/4 122/7/4 
f 54/2/4 122/7/4 53/8/4 
f 124/6/4 43/5/4 44/9/4 
f 43/5/4 49/4/4 42/10/4 
f 48/1/33 51/1/33 57/1/33 49/1/33 
# 257 polygons - 17 triangles

