# 3ds Max Wavefront OBJ Exporter v0.97b - (c)2007 guruware
# File Created: 16.10.2015 21:02:27

mtllib 3d-model.mtl

#
# object HDDWP_M_001
#

v  -82.5500 0.0000 11.2141
v  -82.5500 1.5875 8.4582
v  82.5500 1.5875 8.4582
v  82.5500 0.0000 11.2141
v  -82.5500 4.7625 8.4582
v  82.5500 4.7625 8.4582
v  -82.5500 1.5875 13.9700
v  82.5500 1.5875 13.9700
v  -82.5500 6.3500 11.2141
v  82.5500 6.3500 11.2141
v  -82.5500 4.7625 13.9700
v  82.5500 4.7625 13.9700
# 12 vertices

vn 0.0000 -1.0000 0.0000
vn 0.0000 -0.5000 -0.8660
vn 0.0000 0.5000 -0.8660
vn 0.0000 -0.5000 0.8660
vn 0.0000 1.0000 -0.0000
vn 0.0000 0.5000 0.8660
vn 1.0000 0.0000 -0.0000
vn -1.0000 0.0000 -0.0000
# 8 vertex normals

vt 0.0000 0.0000 0.0000
# 1 texture coords

g HDDWP_M_001
usemtl wire_177028149
s off
f 1/1/1 2/1/2 3/1/2 4/1/1 
f 3/1/2 2/1/2 5/1/3 6/1/3 
f 7/1/4 1/1/1 4/1/1 8/1/4 
f 5/1/3 9/1/5 10/1/5 6/1/3 
f 9/1/5 11/1/6 12/1/6 10/1/5 
f 7/1/4 8/1/4 12/1/6 11/1/6 
f 12/1/7 8/1/7 4/1/7 10/1/7 
f 10/1/7 4/1/7 3/1/7 6/1/7 
f 1/1/8 7/1/8 11/1/8 9/1/8 
f 2/1/8 1/1/8 9/1/8 5/1/8 
# 10 polygons

#
# object HDDWP_R_001
#

v  66.0400 4.5709 11.2141
v  66.0400 1.7791 11.2141
v  66.0400 1.7791 -13.9700
v  66.0400 4.5709 -13.9700
v  63.5745 0.3831 11.2141
v  63.5745 0.3831 -13.9700
v  61.1091 1.7791 11.2141
v  61.1091 1.7791 -13.9700
v  61.1091 4.5709 11.2141
v  61.1091 4.5709 -13.9700
v  63.5745 5.9669 11.2141
v  63.5745 5.9669 -13.9700
# 12 vertices

vn 0.8645 0.5026 -0.0000
vn 0.8645 -0.5026 0.0000
vn -0.0000 -1.0000 0.0000
vn -0.8645 -0.5026 0.0000
vn -0.8645 0.5026 -0.0000
vn 0.0000 1.0000 -0.0000
# 6 vertex normals

vt 0.0000 0.0000 0.0000
# 1 texture coords

g HDDWP_R_001
usemtl wire_229166215
s off
f 13/2/9 14/2/10 15/2/10 16/2/9 
f 17/2/11 18/2/11 15/2/10 14/2/10 
f 19/2/12 20/2/12 18/2/11 17/2/11 
f 20/2/12 19/2/12 21/2/13 22/2/13 
f 22/2/13 21/2/13 23/2/14 24/2/14 
f 24/2/14 23/2/14 13/2/9 16/2/9 
# 6 polygons

#
# object HDDWP_L_001
#

v  -60.5542 4.7625 -13.9700
v  -60.5542 4.7625 11.2141
v  -63.2971 6.3500 11.2141
v  -63.2971 6.3500 -13.9700
v  -60.5542 1.5875 11.2141
v  -60.5542 1.5875 -13.9700
v  -63.2971 -0.0000 -13.9700
v  -63.2971 0.0000 11.2141
v  -66.0400 1.5875 -13.9700
v  -66.0400 1.5875 11.2141
v  -66.0400 4.7625 11.2141
v  -66.0400 4.7625 -13.9700
# 12 vertices

vn 0.8645 0.5026 -0.0000
vn -0.0000 1.0000 -0.0000
vn 0.8645 -0.5026 0.0000
vn -0.0000 -1.0000 0.0000
vn -0.8645 -0.5026 0.0000
vn -0.8645 0.5026 -0.0000
# 6 vertex normals

vt 0.0000 0.0000 0.0000
# 1 texture coords

g HDDWP_L_001
usemtl wire_028089177
s off
f 28/3/16 27/3/16 26/3/15 25/3/15 
f 30/3/17 25/3/15 26/3/15 29/3/17 
f 32/3/18 31/3/18 30/3/17 29/3/17 
f 34/3/19 33/3/19 31/3/18 32/3/18 
f 36/3/20 33/3/19 34/3/19 35/3/20 
f 36/3/20 35/3/20 27/3/16 28/3/16 
# 6 polygons

