# Blender v2.74 (sub 0) OBJ File: ''
# www.blender.org
mtllib flat-screen-lcd-tv.mtl
o Front_Bevel
v -1.586873 0.265911 0.082099
v -1.652992 0.265911 0.082099
v -1.652992 0.265911 0.008794
v -1.586867 0.265911 0.008794
v -1.586873 3.718640 0.008794
v -1.652992 3.718640 0.008794
v -1.652992 3.718640 0.082099
v -1.586873 3.718640 0.082099
v 1.588192 0.265911 0.008794
v 1.652992 0.265911 0.008794
v 1.652992 0.265911 0.082099
v 1.588192 0.265911 0.082099
v 1.652992 3.718640 0.008794
v 1.588192 3.718640 0.008794
v 1.588192 3.718640 0.082099
v 1.652986 3.718640 0.082099
v 1.524694 0.265911 0.082099
v 1.524694 0.265911 0.008794
v 1.524694 3.718640 0.008794
v 1.524688 3.718640 0.082099
v -1.524642 0.265911 0.082099
v -1.524636 0.265911 0.008794
v -1.524636 3.718640 0.008794
v -1.524642 3.718640 0.082099
v 1.652992 3.597790 0.008794
v 1.652986 3.597790 0.082099
v -1.652992 3.597790 0.082099
v -1.652992 3.597790 0.008794
v -1.586873 3.597790 0.082099
v -1.586873 3.597790 0.008794
v 1.588192 3.597790 0.082099
v 1.588192 3.597790 0.008794
v 1.581500 3.597790 0.082099
v 1.524694 3.597790 0.008794
v -1.581454 3.597790 0.082099
v -1.524636 3.597790 0.008794
v 1.652992 0.382527 0.008794
v 1.652992 0.382527 0.082099
v -1.652992 0.382527 0.082099
v -1.652992 0.382527 0.008794
v -1.586873 0.382527 0.082099
v -1.586867 0.382527 0.008794
v 1.588192 0.382527 0.082099
v 1.588192 0.382527 0.008794
v 1.581506 0.382527 0.082099
v 1.524694 0.382527 0.008794
v -1.581454 0.382527 0.082099
v -1.524636 0.382527 0.008794
v 1.652992 0.495061 0.008794
v 1.652992 0.495061 0.082099
v -1.652992 0.495061 0.082099
v -1.652992 0.495061 0.008794
v -1.586873 0.391815 0.082099
v -1.586867 0.495061 0.008794
v 1.588192 0.385800 0.082099
v 1.588192 0.495061 0.008794
v 1.524694 0.495061 0.055588
v 1.524694 0.495061 0.008794
v -1.524642 0.495061 0.055588
v -1.524636 0.495061 0.008794
v 1.652992 3.489200 0.008794
v 1.652986 3.489200 0.082099
v -1.652992 3.489200 0.082099
v -1.652992 3.489200 0.008794
v -1.586873 3.592440 0.082099
v -1.586873 3.489200 0.008794
v 1.588192 3.598460 0.082099
v 1.588192 3.489200 0.008794
v 1.524688 3.489200 0.055588
v 1.524694 3.489200 0.008794
v -1.524642 3.489200 0.055588
v -1.524636 3.489200 0.008794
vn 0.000000 -1.000000 0.000000
vn 0.000000 1.000000 0.000000
vn 1.000000 0.000000 0.000100
vn -1.000000 0.000000 0.000000
vn 0.000000 0.000000 1.000000
vn 0.000000 0.000000 -1.000000
vn 1.000000 0.000000 0.000000
vn -0.000000 0.229300 0.973400
vn -0.385300 -0.000000 0.922800
vn 0.210000 0.122500 0.970000
vn 0.025000 -0.249400 0.968100
vn -0.385200 -0.000000 0.922800
vn -0.000000 -0.237200 0.971500
vn 0.391900 0.000000 0.920000
usemtl Black_Shiny
s 1
f 1//1 2//1 3//1
f 1//1 3//1 4//1
f 5//2 6//2 7//2
f 5//2 7//2 8//2
f 9//1 10//1 11//1
f 9//1 11//1 12//1
f 13//2 14//2 15//2
f 13//2 15//2 16//2
f 12//1 17//1 18//1
f 12//1 18//1 9//1
f 14//2 19//2 20//2
f 14//2 20//2 15//2
f 17//1 21//1 22//1
f 17//1 22//1 18//1
f 21//1 1//1 4//1
f 21//1 4//1 22//1
f 19//2 23//2 24//2
f 19//2 24//2 20//2
f 23//2 5//2 8//2
f 23//2 8//2 24//2
f 25//3 13//3 16//3
f 25//3 16//3 26//3
f 27//4 7//4 6//4
f 27//4 6//4 28//4
f 7//5 27//5 29//5
f 7//5 29//5 8//5
f 28//6 6//6 5//6
f 28//6 5//6 30//6
f 15//5 31//5 26//5
f 15//5 26//5 16//5
f 32//6 14//6 13//6
f 32//6 13//6 25//6
f 20//5 33//5 31//5
f 20//5 31//5 15//5
f 34//6 19//6 14//6
f 34//6 14//6 32//6
f 24//5 35//5 33//5
f 24//5 33//5 20//5
f 8//5 29//5 35//5
f 8//5 35//5 24//5
f 36//6 23//6 19//6
f 36//6 19//6 34//6
f 30//6 5//6 23//6
f 30//6 23//6 36//6
f 10//7 37//7 38//7
f 10//7 38//7 11//7
f 2//4 39//4 40//4
f 2//4 40//4 3//4
f 39//5 2//5 1//5
f 39//5 1//5 41//5
f 3//6 40//6 42//6
f 3//6 42//6 4//6
f 43//5 12//5 11//5
f 43//5 11//5 38//5
f 37//6 10//6 9//6
f 37//6 9//6 44//6
f 45//5 17//5 12//5
f 45//5 12//5 43//5
f 18//6 46//6 44//6
f 18//6 44//6 9//6
f 47//5 21//5 17//5
f 47//5 17//5 45//5
f 41//5 1//5 21//5
f 41//5 21//5 47//5
f 22//6 48//6 46//6
f 22//6 46//6 18//6
f 4//6 42//6 48//6
f 4//6 48//6 22//6
f 37//7 49//7 50//7
f 37//7 50//7 38//7
f 39//4 51//4 52//4
f 39//4 52//4 40//4
f 51//5 39//5 41//5
f 51//5 41//5 53//5
f 40//6 52//6 54//6
f 40//6 54//6 42//6
f 55//5 43//5 38//5
f 55//5 38//5 50//5
f 44//6 56//6 49//6
f 44//6 49//6 37//6
f 57//8 45//8 43//8
f 57//9 43//9 55//9
f 46//6 58//6 56//6
f 46//6 56//6 44//6
f 59//8 47//8 45//8
f 59//8 45//8 57//8
f 53//5 41//5 47//5
f 53//10 47//10 59//10
f 48//6 60//6 58//6
f 48//6 58//6 46//6
f 42//6 54//6 60//6
f 42//6 60//6 48//6
f 49//7 61//3 62//3
f 49//7 62//3 50//7
f 61//3 25//3 26//3
f 61//3 26//3 62//3
f 51//4 63//4 64//4
f 51//4 64//4 52//4
f 63//4 27//4 28//4
f 63//4 28//4 64//4
f 27//5 63//5 65//5
f 27//5 65//5 29//5
f 63//5 51//5 53//5
f 63//5 53//5 65//5
f 52//6 64//6 66//6
f 52//6 66//6 54//6
f 64//6 28//6 30//6
f 64//6 30//6 66//6
f 31//6 67//6 62//6
f 31//5 62//5 26//5
f 67//5 55//5 50//5
f 67//5 50//5 62//5
f 56//6 68//6 61//6
f 56//6 61//6 49//6
f 68//6 32//6 25//6
f 68//6 25//6 61//6
f 33//11 69//11 67//11
f 33//6 67//6 31//6
f 69//12 57//9 55//9
f 69//12 55//9 67//12
f 58//6 70//6 68//6
f 58//6 68//6 56//6
f 70//6 34//6 32//6
f 70//6 32//6 68//6
f 35//13 71//13 69//13
f 35//13 69//13 33//13
f 71//5 59//5 57//5
f 71//5 57//5 69//5
f 29//14 65//14 71//14
f 29//13 71//13 35//13
f 65//14 53//14 59//14
f 65//14 59//14 71//14
f 60//6 72//6 70//6
f 60//6 70//6 58//6
f 72//6 36//6 34//6
f 72//6 34//6 70//6
f 54//6 66//6 72//6
f 54//6 72//6 60//6
f 66//6 30//6 36//6
f 66//6 36//6 72//6
